<?xml version="1.0" encoding="UTF-8"?>
<svg id="Layer_1" data-name="Layer 1" xmlns="http://www.w3.org/2000/svg" viewBox="0 0 50 50">
  <defs>
    <style>
      .cls-1 {
        stroke-linecap: round;
        stroke-linejoin: round;
      }

      .cls-1, .cls-2 {
        fill: none;
        stroke: #fff;
        stroke-width: 2px;
      }
    </style>
  </defs>
  <path class="cls-1" d="m30.514,13.706h-11.218c-3.098,0-5.609,2.511-5.609,5.609v11.218c0,3.098,2.511,5.609,5.609,5.609h11.218c3.098,0,5.609-2.511,5.609-5.609v-11.218c0-3.098-2.511-5.609-5.609-5.609Z"/>
  <path class="cls-1" d="m29.392,24.217c.138.934-.021,1.887-.456,2.725-.435.838-1.122,1.517-1.965,1.941-.843.424-1.798.572-2.73.422-.932-.15-1.793-.59-2.46-1.257-.667-.667-1.107-1.528-1.257-2.46-.15-.932-.002-1.887.422-2.73.424-.843,1.104-1.531,1.941-1.966.838-.435,1.791-.594,2.725-.456.952.141,1.834.585,2.515,1.266.681.681,1.124,1.562,1.266,2.515Z"/>
  <path class="cls-1" d="m31.075,18.754h.011"/>
  <circle class="cls-2" cx="25" cy="25" r="24"/>
</svg>