<?xml version="1.0" encoding="UTF-8"?>
<svg id="Layer_1" data-name="Layer 1" xmlns="http://www.w3.org/2000/svg" viewBox="0 0 50 50">
  <defs>
    <style>
      .cls-1 {
        stroke-linecap: round;
        stroke-linejoin: round;
      }

      .cls-1, .cls-2 {
        fill: none;
        stroke: #fff;
        stroke-width: 2px;
      }
    </style>
  </defs>
  <circle class="cls-2" cx="25" cy="25" r="24"/>
  <path class="cls-1" d="m37.121,15.162c-1.055.741-2.223,1.309-3.46,1.679-.664-.76-1.546-1.299-2.527-1.543-.981-.245-2.014-.183-2.959.176-.945.359-1.756.999-2.324,1.832s-.865,1.821-.852,2.828v1.098c-1.936.05-3.855-.378-5.586-1.245-1.73-.868-3.218-2.148-4.332-3.727,0,0-4.408,9.879,5.51,14.27-2.269,1.535-4.973,2.304-7.714,2.195,9.917,5.488,22.039,0,22.039-12.624,0-.306-.031-.611-.088-.911,1.125-1.105,1.918-2.5,2.292-4.029h0Z"/>
</svg>