<?xml version="1.0" encoding="UTF-8"?>
<svg id="Layer_1" data-name="Layer 1" xmlns="http://www.w3.org/2000/svg" viewBox="0 0 50 50">
  <defs>
    <style>
      .cls-1 {
        stroke-linecap: round;
        stroke-linejoin: round;
      }

      .cls-1, .cls-2 {
        fill: none;
        stroke: #fff;
        stroke-width: 2px;
      }
    </style>
  </defs>
  <circle class="cls-2" cx="25" cy="25" r="24"/>
  <path class="cls-1" d="m36.804,18.876c-.133-.532-.405-1.02-.787-1.414-.382-.394-.861-.68-1.39-.829-1.929-.471-9.647-.471-9.647-.471,0,0-7.718,0-9.647.516-.528.149-1.007.436-1.389.83s-.654.882-.787,1.414c-.353,1.958-.526,3.944-.516,5.934-.013,2.005.16,4.006.516,5.979.147.516.424.985.806,1.362s.853.65,1.371.791c1.93.516,9.647.516,9.647.516,0,0,7.718,0,9.647-.516.528-.149,1.007-.436,1.39-.829.382-.394.653-.882.787-1.414.35-1.943.523-3.915.516-5.889.013-2.005-.16-4.006-.516-5.979h0Z"/>
  <path class="cls-1" d="m22.456,28.523l6.45-3.668-6.45-3.668v7.336Z"/>
</svg>